<?xml version="1.0" encoding="utf-8"?>
<!-- Generator: Adobe Illustrator 22.0.1, SVG Export Plug-In . SVG Version: 6.00 Build 0)  -->
<svg version="1.1" xmlns="http://www.w3.org/2000/svg" xmlns:xlink="http://www.w3.org/1999/xlink" x="0px" y="0px"
	 viewBox="0 0 748.5 216" style="enable-background:new 0 0 748.5 216;" xml:space="preserve">
<style type="text/css">
	.st0{fill:none;stroke:#8E4F0A;stroke-width:11;stroke-miterlimit:10;}
</style>
<g id="Layer_1">
	<title>hero</title>
	<path class="st0" d="M247.5,8.9l-110.1,99.9c-1.3,1.2-1.3,3.2,0,4.4L243.6,210"/>
	<line class="st0" x1="233.1" y1="104.6" x2="135" y2="111"/>
	<line class="st0" x1="274.4" y1="5.4" x2="274.4" y2="211.1"/>
	<line class="st0" x1="376.4" y1="8.3" x2="376.4" y2="210"/>
	<path class="st0" d="M274.4,188.7c2.6,0,102-183.3,102-179.8"/>
	<path class="st0" d="M426.8,200.8c-1.5,15.7,102.2,5.6,112.2,0c10.1-5.6,0-188.7,0-188.7s-108.4-7.3-112.2,0
		C423,19.4,426.8,200.8,426.8,200.8z"/>
	<path class="st0" d="M600.2,13.3h124.4c0,0-4.2,190.9-15.5,193.4S604.4,181,597.4,142.8c69.2,0,145.6,1.4,145.6,1.4"/>
</g>
<g id="Layer_2">
	<g id="Layer_2_1_">
		<g id="Layer_3">
			<path class="st0" d="M16.7,212.5c0,0-4.8-195.4,0-200.2S151.4,9.6,154.8,13s-82,93.4-78.6,97.8c5.3,7.1,69.4,93.9,78.7,101.6"/>
		</g>
	</g>
</g>
</svg>
